# xmcd
#
# Track frame offsets: 
#        150
#        21095
#        37560
#        56220
#        112617
#
# Disc length: 2701 seconds
#
# Revision: 0
# Processed by: cddbd v1.5.2PL0 Copyright (c) Steve Scherf et al.
# Submitted via: ExactAudioCopy v0.99pb5
#
DISCID=2d0a8b05
DTITLE=Rush  - Caress of Steel - Warner Bros. 13474 (SHM)  
DYEAR=1900
DGENRE=
TTITLE0=Bastille Day
TTITLE1=I Think I'm Going Bald
TTITLE2=Lakeside Park
TTITLE3=The Necromancer (I. Into The Darkness \\ II. Under The Shadow 
TTITLE3=\\ III. Return Of The Prince)
TTITLE4=The Fountain Of Lamneth (I. In The Valley \\ II. Didacts And N
TTITLE4=arpets \\ III. No One At The Bridge \\ IV. Panacea \\ V. Bacch
TTITLE4=us Plateau \\ VI. The Fountain)
EXTD=
EXTT0=
EXTT1=
EXTT2=
EXTT3=
EXTT4=
PLAYORDER=
